<svg width="90" height="60" viewBox="0 0 90 60" fill="none" xmlns="http://www.w3.org/2000/svg">
<path d="M90 0H0V60H90V0Z" fill="#9E001C"/>
<path d="M54.4834 46.3442C53.2334 46.7869 52.0167 47.2951 50.6334 47.6065C51.9334 48.6229 52.6334 49.9016 52.9667 51.4098C53.1334 52.1967 52.6834 52.918 51.9834 53.0983C51.2334 53.2787 50.4834 52.8852 50.3167 52.082C49.9167 50.0983 48.5 49.3115 46.7 48.8197C45.05 48.3606 43.5334 48.7049 42.0334 49.3115C40.8334 49.8033 40.1334 50.7213 39.8667 51.9836C39.75 52.5738 39.3834 52.9836 38.7667 53.0983C38.2167 53.1967 37.7334 53.0164 37.4 52.5738C37.1334 52.2131 37.0834 51.8361 37.1834 51.4098C37.5167 49.9344 38.1834 48.6393 39.5 47.6229C38.1334 47.2951 36.9 46.7869 35.65 46.3606C35.4167 46.4098 35.3834 46.2131 35.3 46.082C34.6334 44.9836 33.7334 44.2623 32.35 44.2951C32.1667 44.2951 31.9667 44.2951 31.85 44.1147C31.2 43.5574 30.55 42.9836 29.8834 42.4262C29.7334 42.377 29.6 42.3115 29.5334 42.1639C29.1167 40.9344 28.35 40 27.1334 39.4754C27.1167 38.8688 26.6 38.541 26.3834 38.0328C26.2834 37.8033 26.1334 37.6065 26.0167 37.3934C25.8334 36.4918 25.7167 35.5574 25.0334 34.8361C24.8334 34.6393 24.5834 34.4754 24.5167 34.1803C24.2334 33.0328 23.9334 31.9016 23.65 30.7541C24.3 29.9344 24.3 29.0492 23.6667 28.082C23.5334 27.8688 23.25 27.7377 23.3 27.4262C23.5167 26.5574 23.3334 25.6721 23.5334 24.8033C23.6 24.5082 23.6 24.1967 23.6334 23.9016C24.6667 23.3934 24.3667 22.4918 24.3 21.6557C24.2834 21.4426 24.1167 21.2295 24.2834 21.0164C24.6 20.0328 24.9667 19.0656 25.3834 18.0983C26.4 17.8197 26.2834 16.9508 26.4334 16.2131C26.9834 15.8524 27.55 15.7869 28.15 16.1147C28.3167 16.2623 28.2834 16.4426 28.2667 16.6229C28.2167 17.1147 28.4167 17.541 28.55 17.9836C28.1667 18.7541 27.65 19.4426 27.5334 20.3279C27.5667 20.5246 27.4167 20.6229 27.3 20.7377C26.6167 21.459 26.2834 22.2623 26.5667 23.2623C26.6167 23.4098 26.6667 23.5738 26.5334 23.7377C26.25 24.7541 26 25.7705 26.2667 26.8361C26.3334 27.5246 26.0667 28.2131 26.2834 28.9016C26.35 29.1147 26.4334 29.3279 26.2667 29.541C26.4667 30.9836 26.7 32.4262 27.4 33.7377C27.6667 33.8361 27.6667 34.082 27.6834 34.2951C27.7 34.6885 27.8334 35.0492 28 35.4098C28.2 35.8197 28.45 36.1311 28.9667 36.1639C29.0834 36.1639 29.2167 36.2131 29.2834 36.3279C29.1167 36.4754 28.8834 36.377 28.65 36.5082C29.3334 37.6229 30.0334 38.7049 31 39.6065C31.3834 39.8852 31.3834 40.3934 31.6334 40.7541C31.9667 41.2459 32.2834 41.6393 32.9667 41.4098C33.0834 41.377 33.2167 41.377 33.3 41.4918C33.0834 41.7377 33.35 41.7869 33.4834 41.8852C34.4667 42.6393 35.5334 43.2459 36.6334 43.7869C36.9334 43.7213 36.95 43.9836 37.0667 44.1311C37.2167 44.3279 37.4 44.5082 37.5667 44.6721C38.2 45.2951 38.3167 45.3115 39.15 44.918C39.3167 44.8361 39.45 44.6885 39.6667 44.7869C40.6667 45.2623 41.7834 45.2459 42.85 45.4918C45.3834 46.0492 47.8167 45.4426 50.2667 44.9344C50.3667 44.918 50.4667 44.9016 50.5167 44.7869C50.7 44.7049 50.8334 44.8197 50.9834 44.8852C51.9 45.3115 52.1834 45.2295 52.85 44.459C53.0667 44.2131 53.1 43.7869 53.55 43.7705C54.65 43.2459 55.7 42.6393 56.6667 41.9016C56.8 41.8033 57.1167 41.7377 56.8834 41.459C56.95 41.3606 57.0667 41.3279 57.15 41.3606C57.9334 41.6393 58.2834 41.1639 58.6 40.6065C58.7834 40.2951 58.9 39.9344 59.05 39.6065C59.1 39.5246 59.1667 39.4754 59.2667 39.459C60.1834 38.5901 60.8334 37.541 61.5 36.5082C61.3167 36.2951 61.0334 36.459 60.8834 36.2787C62.0834 36.0164 62.4167 35.1475 62.5 34.0983C62.5167 33.9836 62.55 33.8524 62.6667 33.7869C63.05 33.5574 63.05 33.1311 63.1667 32.7869C63.5334 31.7213 63.7834 30.6393 63.8834 29.5246C63.7667 29.3279 63.8 29.1311 63.8667 28.9508C64.0334 28.377 63.9667 27.8033 63.9334 27.2295C63.9667 26.9344 64.1834 26.6557 64.0334 26.3279C63.9667 25.459 63.9834 24.5574 63.6334 23.7213C63.5334 23.6229 63.55 23.4918 63.5834 23.377C63.9167 22.2951 63.5667 21.3934 62.7834 20.6229C62.7 20.541 62.6 20.459 62.65 20.3115C62.5334 19.4426 62.0167 18.7377 61.6334 17.9836C61.9167 17.3934 61.8667 16.7213 62.0334 16.1147C62.6334 15.7705 63.2 15.8524 63.75 16.2295C63.9167 16.3442 63.8667 16.5246 63.8667 16.6721C63.8 17.3934 64.1667 17.8524 64.8 18.1147C65.2167 19.0656 65.6 20.0328 65.9 21.0328C66.05 21.2295 65.9667 21.4262 65.9167 21.6065C65.8 22.0328 65.85 22.459 65.8167 22.8852C65.7667 23.4426 66.2334 23.6229 66.55 23.918C66.7 24.8688 66.8 25.8361 66.7834 26.8033C66.7834 27.0164 66.7 27.2459 66.8834 27.4426C66.95 27.7049 66.7 27.8361 66.5834 28C66.15 28.5902 66.0334 29.2459 66.05 29.9508C66.0667 30.3442 66.4167 30.4754 66.5334 30.7705C66.2334 31.918 65.95 33.0656 65.65 34.2131C65.6667 34.2787 65.6667 34.3442 65.6167 34.377C64.6334 35.1639 64.3167 36.2459 64.15 37.4098C63.7834 38.082 63.3834 38.7541 62.9 39.3606C62.95 39.5082 62.8334 39.6065 62.7334 39.6393C61.5834 40.1311 61.0334 41.0983 60.6167 42.1639C60.5334 42.2951 60.4 42.377 60.2667 42.4262C59.6834 43.0492 58.9334 43.4754 58.4 44.1475C58.25 44.3279 58.0334 44.3279 57.8334 44.3115C56.5334 44.2295 55.7 44.9344 55.0167 45.8852C54.85 46.0492 54.8167 46.3442 54.4834 46.3442Z" fill="#FECC52"/>
<path d="M39.6333 44.7541C38.2833 45.5901 37.7167 45.459 36.85 44.082C36.7833 43.9672 36.6833 43.8524 36.6 43.7541C35.9167 42.1639 36.3833 40.7541 37.2833 39.4098C37.8333 38.5902 38.4667 37.8197 39.15 37.1148C39.35 36.9016 39.5167 36.6885 39.7167 37.1311C40.3167 38.3934 40.8833 39.6557 41.1167 41.0492C41.4167 42.6065 40.9 43.8197 39.6333 44.7541Z" fill="#F19227"/>
<path d="M53.5167 43.7541C53.2333 44.1147 52.9833 44.5246 52.65 44.8361C51.9333 45.4754 51.7167 45.4754 50.85 44.9836C50.7333 44.918 50.6167 44.8361 50.4833 44.7541C49.0833 43.7377 48.6667 42.377 49.0167 40.7541C49.2833 39.5082 49.7833 38.3443 50.35 37.1967C50.5 36.9016 50.6167 36.7705 50.9167 37.082C51.8333 38.0656 52.6833 39.0984 53.3333 40.2787C53.9667 41.4098 54 42.5738 53.5167 43.7541Z" fill="#F19227"/>
<path d="M31.85 44.0984C32.8167 44.082 33.7333 44.1803 34.5167 44.8525C35.0167 45.2787 35.3167 45.8033 35.65 46.3443C35.9833 46.8689 35.8 47.2623 35.3833 47.6721C34 49.0164 32.45 49.2951 30.7167 48.459C29.4 47.8197 28.3167 46.8689 27.2833 45.7705C28.75 44.9672 30.2167 44.3115 31.85 44.0984Z" fill="#F19227"/>
<path d="M54.4833 46.3443C54.7833 45.8689 55.0833 45.3934 55.5 44.9836C56.3167 44.1803 57.3 44.0492 58.3667 44.1312C59.9833 44.3279 61.4166 45 62.8666 45.7705C61.8 46.8853 60.7166 47.8525 59.3667 48.4918C57.55 49.3607 55.7167 48.9016 54.4667 47.3607C54.1333 46.9672 54.3833 46.6721 54.4833 46.3443Z" fill="#F19227"/>
<path d="M33.2667 41.459C32.05 41.7049 31.6833 41.4918 31.2333 40.3115C31.1333 40.0656 31.0667 39.8197 30.9833 39.5738C30.8 38.3934 31.1667 37.4098 31.9333 36.5082C32.7333 35.5738 33.6667 34.8033 34.6667 34.0984C34.8 34 35.0167 33.7213 35.1333 34.1148C35.5833 35.7049 36 37.2951 35.65 38.9508C35.3833 40.2295 34.55 41.0656 33.2667 41.459Z" fill="#F19227"/>
<path d="M59.1333 39.5902C59.0333 40.2787 58.65 40.8361 58.2333 41.377C57.8167 41.9016 57.3167 41.4754 56.85 41.459C55.4 41.0164 54.45 39.8361 54.3667 38.3607C54.2833 36.9508 54.5667 35.6066 54.95 34.2623C55.0167 34.0164 55.0667 33.8197 55.3833 34.0492C56.6333 34.9508 57.8167 35.8853 58.6667 37.1803C58.9 37.541 59.0667 37.9344 59.1333 38.3771C59.2 38.7705 59.2167 39.1803 59.1333 39.5902Z" fill="#F19227"/>
<path d="M60.4834 42.1803C60.7834 40.8361 61.65 39.9344 62.8667 39.3443C64.4834 39.2295 66.0667 39.3935 67.6167 39.8361C68.0834 39.9672 68.25 40.0984 67.9167 40.5574C67.1167 41.6394 66.3167 42.7049 65.15 43.4426C63.5667 44.4426 61.4834 44.1148 60.4 42.6885C60.4834 42.5246 60.35 42.3279 60.4834 42.1803Z" fill="#F19227"/>
<path d="M27.1333 39.459C28.4 39.6885 29.0333 40.5902 29.4833 41.6557C29.55 41.8197 29.6 42 29.65 42.1803C29.7833 42.3279 29.6333 42.5246 29.75 42.6721C28.7833 43.9344 26.85 44.3934 25.3833 43.6557C23.9167 42.9016 22.9667 41.6393 22.0833 40.3115C22 40.1967 21.9167 40.0328 22.1333 39.9672C23.7667 39.5082 25.4 39.0492 27.1333 39.459Z" fill="#F19227"/>
<path d="M62.6334 33.7869C62.6334 34.3115 62.5834 34.8361 62.3667 35.3443C62.0834 36.0328 61.6334 36.3934 60.85 36.2951C59.3667 36.0656 58.2834 34.9672 58.1334 33.4426C58 32.0656 58.15 30.7213 58.5167 29.2787C60.0334 30.2459 61.5167 31.1311 62.3834 32.7377C62.5667 33.0492 62.65 33.4098 62.6334 33.7869Z" fill="#F19227"/>
<path d="M29.2667 36.2787C28.2167 36.2295 27.5667 35.5574 27.5 34.3935C27.4834 34.1476 27.5334 33.9017 27.3834 33.6885C27.9334 31.459 29.8 30.4426 31.6 29.2459C31.9667 30.9508 32.2834 32.5738 31.7834 34.1967C31.4334 35.3935 30.5334 36.082 29.2667 36.2787Z" fill="#F19227"/>
<path d="M24.5 34.1639C25.5 34.8361 25.9167 35.8525 26.1 36.9672C26.1333 37.1148 26.05 37.2459 26 37.3771C25.6667 37.5574 25.3667 37.7541 25.0167 37.9016C23.7833 38.4426 22.6333 38.3115 21.5667 37.4918C20.45 36.623 19.7 35.4754 19 34.1967C20.8833 33.8033 22.6833 33.4754 24.5 34.1639Z" fill="#F19227"/>
<path d="M64.1167 37.377C63.95 36.3443 64.3333 35.4754 65.0167 34.7049C65.1833 34.5082 65.4167 34.3443 65.6167 34.1803C67.4333 33.4426 69.2333 33.8197 71.1167 34.1967C70.3667 35.5902 69.55 36.8525 68.2333 37.7213C67.1833 38.4098 66.0833 38.377 64.9833 37.8525C64.6833 37.7213 64.4 37.541 64.1167 37.377Z" fill="#F19227"/>
<path d="M26.2667 29.5082C26 28.6066 25.8333 27.7049 26.25 26.8033C26.4167 26.2951 26.7833 25.9344 27.1833 25.6066C28.05 24.9016 29.05 24.3934 30.0667 23.9508C30.3 23.8525 30.5 23.7705 30.5 24.1475C30.5167 25.3279 30.5667 26.5246 30.2333 27.6721C29.85 28.9508 29 29.7049 27.65 29.9016C27.1167 30 26.6333 29.9508 26.2667 29.5082Z" fill="#F19227"/>
<path d="M64.0167 27.1639C64.2834 27.9672 64.0834 28.7377 63.8667 29.5246C63.35 30.1311 62.6834 30.0164 62.05 29.8361C61.05 29.5574 60.3334 28.9508 60 27.9672C59.5667 26.7213 59.6 25.4262 59.6334 24.1475C59.6334 23.9508 59.7 23.8033 59.9167 23.918C61.4334 24.6393 63.0334 25.2295 63.8834 26.8033C64 26.8852 64.1 26.9836 64.0167 27.1639Z" fill="#F19227"/>
<path d="M23.2667 27.4098C24.0333 28.0656 24.2833 28.9508 24.3667 29.8852C24.4167 30.377 24.0333 30.5738 23.6333 30.7377C21.6833 31.2623 20.5 30.8197 19.4 29.1147C18.9667 28.459 18.6333 27.7541 18.35 27.0328C18.2667 26.8197 18.1833 26.6066 18.5333 26.5902C20.15 26.5574 21.8167 26.4098 23.2667 27.4098Z" fill="#F19227"/>
<path d="M66.5 30.7377C65.8333 30.3935 65.6667 29.8853 65.9167 28.9508C66.0833 28.3443 66.3833 27.8197 66.8667 27.4098C67.5167 26.9016 68.2667 26.7377 69.0667 26.6394C69.8833 26.541 70.6833 26.5574 71.5 26.5902C71.8333 26.6066 71.95 26.7049 71.8 27.0492C71.4 28.0164 70.95 28.9508 70.2667 29.7705C69.25 30.9836 67.9667 31.2459 66.5 30.7377Z" fill="#F19227"/>
<path d="M62.6166 20.2951C63.5833 20.9508 64.2333 22.3115 63.6166 23.7049C62.3833 24.3607 60.8666 24.0328 60.0666 22.918C59.3166 21.8689 59.0666 20.6394 58.7833 19.4262C58.7 19.0492 58.95 19.1476 59.15 19.1803C60.3666 19.3607 61.5333 19.6885 62.6166 20.2951Z" fill="#F19227"/>
<path d="M26.5167 23.7049C26 22.3279 26.3667 21.2131 27.5167 20.3115C28.6 19.6557 29.8 19.3771 31.0334 19.1639C31.2834 19.1148 31.4334 19.1312 31.3667 19.459C31.1167 20.5902 30.85 21.7377 30.2167 22.7377C29.4 24 27.8334 24.4098 26.5167 23.7049Z" fill="#F19327"/>
<path d="M24.25 21C24.5667 21.6066 24.5167 22.2623 24.5167 22.918C24.5167 23.5246 24.2833 23.9017 23.6 23.8853C21.3667 24.0328 20.6667 22.8361 20.1667 21.459C19.9333 20.8033 19.8 20.1312 19.7167 19.4426C19.6833 19.1476 19.7167 19.0164 20.05 19.082C21.6 19.3771 23.1833 19.6557 24.25 21Z" fill="#F19227"/>
<path d="M66.5333 23.8852C65.6833 23.7049 65.65 23.6557 65.6167 22.8033C65.5833 22.1803 65.6666 21.5902 65.8833 21.0164C66.95 19.6721 68.5333 19.3771 70.1 19.0656C70.4167 19 70.4833 19.1148 70.4333 19.4262C70.3333 20.1311 70.2 20.8361 69.95 21.5082C69.4333 22.8689 68.7667 24.0328 66.5333 23.8852Z" fill="#F19227"/>
<path d="M28.8667 7.72131C29.45 9.08197 30.1167 10.3607 29.9 11.8525C29.75 12.8361 28.7667 13.7869 27.8167 14C27.6 14.0492 27.4667 13.9836 27.3 13.8525C26.3 13.0492 25.95 11.6885 26.4833 10.5246C27 9.39344 27.85 8.52459 28.8667 7.72131Z" fill="#F19327"/>
<path d="M61.2833 7.72131C62.3167 8.54098 63.1833 9.44262 63.7 10.623C64.1833 11.7377 63.8 13.0492 62.85 13.8525C62.6167 14.0492 62.4333 14.0328 62.1667 13.9344C60.7333 13.4262 60.0333 12.3279 60.2333 10.8361C60.3667 9.73771 60.7667 8.73771 61.2833 7.72131Z" fill="#F19327"/>
<path d="M28.5166 17.9672C28.0333 17.623 28.0833 17.1148 28.0666 16.623C28.05 16.4426 28.1 16.2623 28.1166 16.0984C28.45 15.0492 29.2333 14.459 30.25 14.1148C30.8833 13.9016 31.5166 13.7377 32.1666 13.5574C32.5333 13.459 32.8 13.4426 32.6666 14C32.4666 14.8361 32.3 15.6721 31.9166 16.459C31.2333 17.8689 30.0833 18.3771 28.5166 17.9672Z" fill="#F19327"/>
<path d="M62 16.0984C62.0667 16.7705 62.2167 17.4426 61.6 17.9672C60.05 18.377 58.9 17.8688 58.2167 16.459C57.8167 15.6229 57.6 14.7213 57.4334 13.8197C57.4 13.6229 57.4 13.4754 57.65 13.5246C59 13.7705 60.35 14.0492 61.4 15.0328C61.7167 15.3115 61.85 15.7213 62 16.0984Z" fill="#F19327"/>
<path d="M26.4167 16.1967C26.6167 16.6885 26.45 17.1639 26.35 17.6229C26.2334 18.0983 25.7167 17.9836 25.3834 18.0983C23.7167 18.0164 22.9667 17.459 22.3834 15.9016C22.1667 15.3443 22.05 14.7705 21.9167 14.1803C21.8334 13.7705 21.9167 13.5574 22.4 13.6557C23.3 13.8361 24.1834 14.0328 25.0167 14.4262C25.7667 14.8033 26.2667 15.3606 26.4167 16.1967Z" fill="#F19327"/>
<path d="M64.7667 18.0984C63.6667 18.0328 63.6167 17.5574 63.7167 16.2131C63.8833 15.3607 64.3833 14.7869 65.1667 14.4262C66.0167 14.0328 66.9167 13.8033 67.8333 13.6557C68.15 13.6066 68.3 13.6885 68.25 14.0328C68.0833 15.0492 67.8333 16.0328 67.2667 16.9016C66.6833 17.8033 65.8 18.0984 64.7667 18.0984Z" fill="#F19327"/>
<path d="M59.1334 39.5902C59.1334 39.1803 59.15 38.7705 59.15 38.3607C59.3667 38.7213 59.2167 39.0984 59.25 39.4754C59.2 39.5082 59.1667 39.541 59.1334 39.5902Z" fill="#FADCB7"/>
<path d="M64.0167 27.1639C63.9834 27.0328 63.9334 26.918 63.9 26.7869C64.0834 26.6721 63.9667 26.4754 64.0334 26.3115C64.1667 26.5902 64.1834 26.8688 64.0167 27.1639Z" fill="#FCD586"/>
<path d="M29.75 42.6721C29.6333 42.5246 29.6333 42.3607 29.65 42.1803C29.7666 42.2131 29.85 42.2951 29.9 42.4098C29.7666 42.459 29.7833 42.5738 29.75 42.6721Z" fill="#FCE3B7"/>
<path d="M60.4833 42.1803C60.5 42.3607 60.5167 42.5246 60.3833 42.6721C60.35 42.5738 60.35 42.459 60.2333 42.4098C60.2833 42.2951 60.3667 42.2131 60.4833 42.1803Z" fill="#FBDEAF"/>
</svg>
