<svg width="20" height="23" fill="" xmlns="http://www.w3.org/2000/svg"><path d="M15.09 22.61c-.488-.115-.983-.203-1.463-.35-.99-.3-1.913-.784-2.8-1.342-2.516-1.583-4.667-3.644-6.575-6.015-1.238-1.539-2.32-3.196-3.154-5.034C.585 8.738.181 7.564.042 6.302c-.087-.792-.063-1.58.294-2.304.112-.228.258-.446.424-.632.581-.653 1.183-1.283 1.767-1.933.81-.902 2.066-.81 2.83.001.911.967 1.807 1.95 2.7 2.937.786.87.792 2.172.011 2.966-.166.17-.38.303-.593.395-.546.234-.976.59-1.213 1.189-.158.398-.18.805-.076 1.226.29 1.185.908 2.16 1.65 3.051.774.928 1.648 1.719 2.69 2.27.458.243.93.459 1.46.384.717-.103 1.263-.48 1.547-1.225.175-.46.382-.883.786-1.158.756-.515 1.687-.421 2.354.286.94.996 1.869 2.003 2.781 3.028.748.84.72 2.179-.038 3.019-.6.663-1.209 1.316-1.812 1.975-.427.467-.953.704-1.544.791-.05.007-.099.027-.147.04-.274.002-.549.002-.823.002Z" fill="#fff"/></svg>